<?xml version="1.0" encoding="UTF-8"?>
<svg xmlns="http://www.w3.org/2000/svg" xmlns:xlink="http://www.w3.org/1999/xlink" viewBox="0 0 64 64" version="1.1" width="64px" height="64px">
<g id="surface1">
<path style=" fill:#FAEFDE;" d="M 7 9 L 57 9 C 59.210938 9 61 10.789063 61 13 L 61 47 C 61 49.210938 59.210938 51 57 51 L 7 51 C 4.789063 51 3 49.210938 3 47 L 3 13 C 3 10.789063 4.789063 9 7 9 Z "/>
<path style=" fill:#EFD8BE;" d="M 11 51 L 11 22 L 32 37 Z "/>
<path style=" fill:#FFF7F0;" d="M 32 28 L 6 9 L 58 9 Z "/>
<path style=" fill:#ED7899;" d="M 31.578125 28 L 7.78125 10.511719 C 6.867188 9.839844 5.65625 9.738281 4.644531 10.25 C 3.632813 10.761719 3 11.796875 3 12.929688 L 3 47 C 3 49.210938 4.789063 51 7 51 L 11 51 L 11 22 L 31.671875 37 L 53 22 L 53 51 L 57 51 C 59.210938 51 61 49.210938 61 47 L 61 12.828125 C 61 11.707031 60.371094 10.679688 59.375 10.167969 C 58.375 9.652344 57.175781 9.738281 56.261719 10.390625 Z "/>
<path style=" fill:#8D6C9F;" d="M 57 8 L 7 8 C 4.238281 8 2 10.238281 2 13 L 2 47 C 2 49.761719 4.238281 52 7 52 L 57 52 C 59.761719 52 62 49.761719 62 47 L 62 13 C 62 10.238281 59.761719 8 57 8 Z M 55.148438 10 L 32.589844 26.339844 C 32.242188 26.59375 31.769531 26.59375 31.421875 26.339844 L 8.851563 10 Z M 12 48 C 12.550781 48 13 47.550781 13 47 L 13 45 C 13 44.449219 12.550781 44 12 44 L 12 23.75 L 30.238281 37 C 31.289063 37.761719 32.710938 37.761719 33.761719 37 L 52 23.75 L 52 44 C 51.449219 44 51 44.449219 51 45 L 51 47 C 51 47.550781 51.449219 48 52 48 L 52 50 L 12 50 Z M 60 47 C 60 48.65625 58.65625 50 57 50 L 54 50 L 54 21.789063 C 53.992188 21.417969 53.78125 21.078125 53.445313 20.910156 C 53.109375 20.746094 52.710938 20.78125 52.410156 21 L 32.589844 35.339844 C 32.242188 35.59375 31.769531 35.59375 31.421875 35.339844 L 11.589844 21 C 11.285156 20.777344 10.882813 20.746094 10.546875 20.917969 C 10.210938 21.085938 10 21.433594 10 21.808594 L 10 50 L 7 50 C 5.34375 50 4 48.65625 4 47 L 4 13 C 4.003906 11.8125 4.703125 10.738281 5.789063 10.261719 L 30.238281 28 C 31.289063 28.761719 32.710938 28.761719 33.761719 28 L 58.210938 10.300781 C 59.28125 10.773438 59.980469 11.828125 60 13 Z "/>
<path style=" fill:#8D6C9F;" d="M 17 44 C 16.449219 44 16 44.449219 16 45 L 16 47 C 16 47.550781 16.449219 48 17 48 C 17.550781 48 18 47.550781 18 47 L 18 45 C 18 44.449219 17.550781 44 17 44 Z "/>
<path style=" fill:#8D6C9F;" d="M 22 44 C 21.449219 44 21 44.449219 21 45 L 21 47 C 21 47.550781 21.449219 48 22 48 C 22.550781 48 23 47.550781 23 47 L 23 45 C 23 44.449219 22.550781 44 22 44 Z "/>
<path style=" fill:#8D6C9F;" d="M 27 44 C 26.449219 44 26 44.449219 26 45 L 26 47 C 26 47.550781 26.449219 48 27 48 C 27.550781 48 28 47.550781 28 47 L 28 45 C 28 44.449219 27.550781 44 27 44 Z "/>
<path style=" fill:#8D6C9F;" d="M 32 44 C 31.449219 44 31 44.449219 31 45 L 31 47 C 31 47.550781 31.449219 48 32 48 C 32.550781 48 33 47.550781 33 47 L 33 45 C 33 44.449219 32.550781 44 32 44 Z "/>
<path style=" fill:#8D6C9F;" d="M 37 44 C 36.449219 44 36 44.449219 36 45 L 36 47 C 36 47.550781 36.449219 48 37 48 C 37.550781 48 38 47.550781 38 47 L 38 45 C 38 44.449219 37.550781 44 37 44 Z "/>
<path style=" fill:#8D6C9F;" d="M 42 44 C 41.449219 44 41 44.449219 41 45 L 41 47 C 41 47.550781 41.449219 48 42 48 C 42.550781 48 43 47.550781 43 47 L 43 45 C 43 44.449219 42.550781 44 42 44 Z "/>
<path style=" fill:#8D6C9F;" d="M 47 44 C 46.449219 44 46 44.449219 46 45 L 46 47 C 46 47.550781 46.449219 48 47 48 C 47.550781 48 48 47.550781 48 47 L 48 45 C 48 44.449219 47.550781 44 47 44 Z "/>
</g>
</svg>
